<?xml version="1.0" standalone="no"?>
<!DOCTYPE svg PUBLIC "-//W3C//DTD SVG 20010904//EN"
 "http://www.w3.org/TR/2001/REC-SVG-20010904/DTD/svg10.dtd">
<svg version="1.0" xmlns="http://www.w3.org/2000/svg"
 width="100" height="100" viewBox="0 0 512.000000 512.000000"
 preserveAspectRatio="xMidYMid meet">

<g transform="translate(0.000000,512.000000) scale(0.100000,-0.100000)"
fill="#7f1f9b" stroke="none">
<path d="M2205 5044 c-212 -23 -445 -76 -608 -140 -190 -75 -401 -193 -546
-306 -49 -39 -65 -47 -72 -37 -5 8 -29 50 -53 94 -55 100 -76 120 -127 120
-55 0 -73 -22 -185 -225 -53 -96 -101 -180 -107 -187 -7 -7 -91 -55 -187 -108
-96 -53 -187 -110 -202 -126 -33 -35 -37 -85 -10 -118 9 -12 80 -57 157 -100
83 -47 139 -84 138 -92 -1 -8 -27 -76 -58 -152 -108 -263 -158 -525 -158 -822
0 -354 71 -660 228 -981 63 -128 186 -317 274 -421 34 -40 61 -74 61 -76 0 -2
-32 -7 -72 -10 -136 -12 -257 -98 -316 -225 -23 -50 -27 -72 -30 -189 l-4
-131 -135 -4 -135 -3 -29 -33 -29 -32 0 -295 c0 -317 3 -336 51 -361 42 -21
4476 -21 4518 0 48 25 51 44 51 361 l0 295 -29 32 -29 33 -135 3 -135 4 -4
131 c-3 120 -6 138 -32 194 -35 76 -113 154 -192 190 -50 23 -54 27 -41 42
118 135 239 310 307 443 l44 85 36 -39 c30 -31 44 -38 74 -38 53 0 77 29 174
207 50 91 94 160 110 171 15 10 88 52 162 93 160 87 190 113 190 164 0 51 -30
77 -190 164 -74 41 -147 83 -162 93 -15 10 -59 77 -104 161 -78 141 -78 143
-96 267 -72 505 -296 946 -659 1295 -325 314 -742 520 -1189 590 -101 15 -432
28 -515 19z m376 -204 c304 -31 631 -144 880 -305 507 -327 849 -873 914
-1461 l7 -62 -77 -138 c-42 -77 -85 -147 -96 -156 -11 -9 -87 -54 -170 -99
-82 -45 -158 -93 -169 -107 -25 -32 -26 -82 0 -114 10 -14 92 -65 180 -113
175 -96 207 -125 196 -176 -8 -43 -98 -224 -161 -324 -71 -112 -165 -232 -266
-339 l-81 -86 -1349 0 -1349 0 -81 83 c-525 532 -711 1334 -471 2037 41 118
69 190 76 190 2 0 38 -63 80 -140 42 -76 86 -146 98 -155 34 -23 95 -19 121 8
12 12 68 105 125 208 l102 185 195 108 c202 112 225 131 225 190 0 43 -40 75
-229 179 -102 56 -186 107 -188 113 -2 6 40 43 93 82 401 301 902 441 1395
392z m-1707 -504 l69 -124 129 -72 130 -73 -109 -60 c-59 -32 -118 -66 -130
-73 -12 -7 -52 -70 -90 -139 -37 -68 -70 -125 -73 -125 -3 0 -37 57 -75 127
l-70 126 -110 62 c-61 33 -119 66 -129 72 -16 9 -4 18 90 71 60 33 120 69 134
80 14 11 54 72 89 136 34 64 66 116 69 116 4 0 38 -56 76 -124z m3680 -1678
l49 -86 103 -57 c57 -31 104 -58 104 -60 0 -1 -47 -28 -104 -59 l-103 -57 -48
-87 c-78 -139 -66 -136 -120 -35 -26 48 -57 98 -69 111 -11 13 -62 46 -113 73
-51 28 -93 52 -93 54 0 2 42 26 93 54 51 27 102 60 113 73 12 13 42 63 68 111
55 101 43 105 120 -35z m-564 -1517 c19 -10 48 -35 65 -55 29 -37 30 -41 33
-157 l4 -119 -687 -2 -687 -3 -30 -34 c-26 -29 -30 -39 -25 -75 4 -27 15 -49
32 -63 l26 -23 850 0 849 0 0 -170 0 -170 -2110 0 -2110 0 0 170 0 170 851 0
851 0 29 29 c40 40 40 89 0 133 l-29 33 -686 3 -686 2 0 101 c0 140 24 193
105 230 38 18 110 19 1680 19 1579 0 1642 -1 1675 -19z"/>
<path d="M3039 4141 c-27 -28 -29 -34 -29 -111 0 -77 2 -83 29 -111 49 -49
128 -35 160 28 15 29 14 135 -1 168 -27 59 -112 73 -159 26z"/>
<path d="M2684 3780 c-60 -24 -73 -112 -25 -161 27 -27 35 -29 101 -29 81 0
120 16 138 55 23 51 7 107 -39 131 -31 15 -141 18 -175 4z"/>
<path d="M3364 3780 c-60 -24 -73 -112 -25 -161 27 -27 35 -29 101 -29 81 0
120 16 138 55 23 51 7 107 -39 131 -31 15 -141 18 -175 4z"/>
<path d="M3039 3461 c-27 -28 -29 -34 -29 -111 0 -77 2 -83 29 -111 49 -49
128 -35 160 28 15 29 14 135 -1 168 -27 59 -112 73 -159 26z"/>
<path d="M1739 2801 c-27 -28 -29 -34 -29 -111 0 -77 2 -83 29 -111 40 -39 89
-40 133 0 28 25 32 35 36 93 7 105 -30 158 -109 158 -20 0 -40 -10 -60 -29z"/>
<path d="M1371 2434 c-13 -9 -29 -32 -37 -50 -12 -29 -12 -39 0 -68 22 -52 50
-66 134 -66 71 0 75 1 108 34 25 25 34 43 34 66 0 23 -9 42 -34 66 -33 33 -37
34 -108 34 -52 0 -80 -5 -97 -16z"/>
<path d="M2039 2422 c-26 -24 -32 -36 -32 -72 0 -36 6 -48 32 -72 28 -25 38
-28 106 -28 68 0 77 2 107 29 27 24 33 36 33 71 0 35 -6 47 -33 71 -30 27 -39
29 -107 29 -68 0 -78 -3 -106 -28z"/>
<path d="M1739 2121 c-27 -28 -29 -34 -29 -111 0 -77 2 -83 29 -111 40 -40 89
-40 133 0 32 29 33 31 33 111 0 80 -1 82 -33 111 -44 40 -93 40 -133 0z"/>
<path d="M2274 801 c-30 -13 -64 -59 -64 -88 0 -13 7 -37 15 -53 44 -85 169
-60 182 36 4 35 1 46 -23 73 -31 33 -76 46 -110 32z"/>
</g>
</svg>
